<svg width="34" height="34" viewBox="0 0 34 34" fill="none" xmlns="http://www.w3.org/2000/svg">
<circle cx="17.3684" cy="16.6316" r="16.1316" stroke="#B6B6B6" stroke-opacity="0.5"/>
<path d="M20.1192 9.979H13.6831C11.5884 9.979 9.88428 11.6831 9.88428 13.7778V20.2141C9.88428 22.3087 11.5884 24.0128 13.6831 24.0128H20.1194C22.2139 24.0128 23.9181 22.3087 23.9181 20.2141V13.7778C23.9181 11.6831 22.2139 9.979 20.1192 9.979ZM16.9012 20.8332C14.7853 20.8332 13.0639 19.1118 13.0639 16.9959C13.0639 14.88 14.7853 13.1586 16.9012 13.1586C19.0171 13.1586 20.7384 14.88 20.7384 16.9959C20.7384 19.1118 19.0171 20.8332 16.9012 20.8332ZM20.8302 14.0636C20.2049 14.0636 19.6963 13.555 19.6963 12.9297C19.6963 12.3044 20.2049 11.7958 20.8302 11.7958C21.4555 11.7958 21.9642 12.3044 21.9642 12.9297C21.9642 13.555 21.4555 14.0636 20.8302 14.0636Z" fill="white"/>
<path d="M16.9008 13.9831C15.2386 13.9831 13.8862 15.3354 13.8862 16.9976C13.8862 18.6598 15.2386 20.0122 16.9008 20.0122C18.563 20.0122 19.9153 18.6598 19.9153 16.9976C19.9153 15.3354 18.563 13.9831 16.9008 13.9831Z" fill="white"/>
<path d="M20.8304 12.6193C20.6589 12.6193 20.5192 12.7589 20.5192 12.9305C20.5192 13.102 20.6589 13.2416 20.8304 13.2416C21.002 13.2416 21.1416 13.1021 21.1416 12.9305C21.1416 12.7588 21.002 12.6193 20.8304 12.6193Z" fill="white"/>
</svg>
