<svg width="34" height="34" viewBox="0 0 34 34" fill="none" xmlns="http://www.w3.org/2000/svg">
<circle cx="16.7895" cy="16.6316" r="16.1316" stroke="#B6B6B6" stroke-opacity="0.5"/>
<path d="M23.3353 24.013L23.3388 24.0124V18.8655C23.3388 16.3476 22.7967 14.408 19.8531 14.408C18.4381 14.408 17.4884 15.1845 17.1008 15.9207H17.0598V14.6431H14.2688V24.0124H17.175V19.3731C17.175 18.1515 17.4066 16.9703 18.9193 16.9703C20.4098 16.9703 20.432 18.3644 20.432 19.4514V24.013H23.3353Z" fill="white"/>
<path d="M9.53705 14.6439H12.4467V24.0132H9.53705V14.6439Z" fill="white"/>
<path d="M10.9904 9.979C10.0601 9.979 9.30518 10.7339 9.30518 11.6642C9.30518 12.5946 10.0601 13.3652 10.9904 13.3652C11.9207 13.3652 12.6756 12.5946 12.6756 11.6642C12.675 10.7339 11.9201 9.979 10.9904 9.979Z" fill="white"/>
</svg>
