<svg width="34" height="34" viewBox="0 0 34 34" fill="none" xmlns="http://www.w3.org/2000/svg">
<circle cx="17.2104" cy="16.6316" r="16.1316" stroke="#B6B6B6" stroke-opacity="0.5"/>
<path d="M23.7599 12.1604C23.238 12.3894 22.6819 12.5411 22.1021 12.6148C22.6986 12.2587 23.1538 11.6991 23.3678 11.0246C22.8117 11.3561 22.1977 11.5903 21.5434 11.721C21.0154 11.1588 20.2628 10.8105 19.4419 10.8105C17.849 10.8105 16.5667 12.1034 16.5667 13.6884C16.5667 13.9164 16.586 14.1357 16.6333 14.3444C14.2415 14.2278 12.125 13.0814 10.7032 11.3351C10.455 11.7657 10.3094 12.2587 10.3094 12.7893C10.3094 13.7857 10.8225 14.669 11.5873 15.1803C11.1251 15.1716 10.6716 15.0374 10.2874 14.826C10.2874 14.8347 10.2874 14.8461 10.2874 14.8576C10.2874 16.2557 11.2847 17.417 12.5925 17.6845C12.3583 17.7485 12.103 17.7792 11.8382 17.7792C11.654 17.7792 11.468 17.7687 11.2935 17.7301C11.6662 18.8695 12.724 19.7071 13.9818 19.7343C13.003 20.5 11.7601 20.9614 10.4146 20.9614C10.1787 20.9614 9.95237 20.9509 9.72607 20.9219C11.0005 21.7438 12.5109 22.213 14.1397 22.213C19.434 22.213 22.3284 17.8275 22.3284 14.026C22.3284 13.8989 22.324 13.7761 22.3179 13.6542C22.8889 13.2489 23.3687 12.7428 23.7599 12.1604Z" fill="white"/>
</svg>
